<svg width="23" height="10" viewBox="0 0 23 10" fill="none" xmlns="http://www.w3.org/2000/svg">
<path d="M5.126e-06 9.6V6.24C5.126e-06 4.352 0.576005 2.848 1.72801 1.72799C2.88001 0.575995 4.38401 -4.29153e-06 6.24001 -4.29153e-06C7.42401 -4.29153e-06 8.43201 0.207995 9.26401 0.623995C10.096 1.04 10.8 1.568 11.376 2.208C11.984 2.816 12.528 3.44 13.008 4.08C13.488 4.688 13.984 5.2 14.496 5.61599C15.008 6.032 15.584 6.24 16.224 6.24C16.96 6.24 17.52 6.016 17.904 5.568C18.288 5.12 18.48 4.464 18.48 3.6V0.239995H22.56V3.6C22.56 5.456 21.984 6.96 20.832 8.112C19.712 9.264 18.208 9.84 16.32 9.84C15.136 9.84 14.128 9.632 13.296 9.216C12.464 8.8 11.744 8.288 11.136 7.68C10.56 7.04 10.032 6.416 9.552 5.808C9.07201 5.168 8.57601 4.64 8.06401 4.224C7.55201 3.808 6.97601 3.6 6.33601 3.6C5.63201 3.6 5.07201 3.824 4.656 4.272C4.27201 4.72 4.08001 5.376 4.08001 6.24V9.6H5.126e-06Z" fill="black"/>
</svg>
