<svg width="208" height="46" viewBox="0 0 208 46" fill="none" xmlns="http://www.w3.org/2000/svg">
<path d="M54.7863 34.3087C54.7863 32.4962 55.2394 30.8869 56.1456 29.4806C57.0519 28.0744 58.1769 26.8556 59.5206 25.8244C60.8644 24.7619 62.3175 23.8712 63.88 23.1525C65.4425 22.4025 66.8956 21.7931 68.2394 21.3244C69.5831 20.8244 70.7081 20.4337 71.6144 20.1525C72.5206 19.84 72.9738 19.59 72.9738 19.4025C72.9738 18.3087 72.9113 17.2462 72.7863 16.215C72.6925 15.1525 72.5831 14.09 72.4581 13.0275C72.3331 11.965 72.2081 10.9181 72.0831 9.88687C71.9894 8.82437 71.9425 7.7775 71.9425 6.74625V3.69937C73.2238 3.23062 74.13 3.2775 74.6613 3.84C75.2238 4.4025 75.3175 5.37125 74.9425 6.74625C75.0675 7.43375 75.2394 8.51187 75.4581 9.98062C75.6769 11.4494 75.9113 13.1056 76.1613 14.9494C76.4425 16.7931 76.7238 18.7306 77.005 20.7619C77.3175 22.7931 77.5988 24.7462 77.8488 26.6212C78.13 28.465 78.3644 30.1212 78.5519 31.59C78.7394 33.0275 78.88 34.1056 78.9738 34.8244C79.005 34.9806 79.0363 35.2931 79.0675 35.7619C79.0988 36.1994 79.1144 36.6837 79.1144 37.215C79.1456 37.715 79.1613 38.1837 79.1613 38.6212C79.1925 39.0587 79.2081 39.3712 79.2081 39.5587C78.0206 39.5587 77.2081 39.5119 76.7706 39.4181C76.3644 39.3244 76.0988 39.1369 75.9738 38.8556C75.88 38.5744 75.8331 38.1681 75.8331 37.6369C75.8331 37.1056 75.6769 36.3712 75.3644 35.4337C74.2081 36.34 73.1144 37.09 72.0831 37.6837C71.0519 38.2775 70.0206 38.7619 68.9894 39.1369C67.9581 39.4806 66.9113 39.715 65.8488 39.84C64.8175 39.9962 63.7081 40.0744 62.5206 40.0744C61.5206 40.0744 60.5519 39.9962 59.6144 39.84C58.7081 39.6525 57.8956 39.34 57.1769 38.9025C56.4581 38.465 55.88 37.8712 55.4425 37.1212C55.005 36.3712 54.7863 35.4337 54.7863 34.3087ZM58.8644 33.3244C58.8644 33.8244 58.9738 34.2306 59.1925 34.5431C59.4113 34.8556 59.6925 35.1212 60.0363 35.34C60.38 35.5587 60.7394 35.715 61.1144 35.8087C61.5206 35.8712 61.9113 35.9025 62.2863 35.9025C63.38 35.9025 64.5519 35.6994 65.8019 35.2931C67.0831 34.8556 68.255 34.2619 69.3175 33.5119C70.4113 32.7306 71.3019 31.8087 71.9894 30.7462C72.7081 29.6837 73.0675 28.5275 73.0675 27.2775C73.0675 26.3087 72.8956 25.6369 72.5519 25.2619C72.2081 24.8869 71.5519 24.6994 70.5831 24.6994C69.5831 24.6994 68.4113 24.9337 67.0675 25.4025C65.755 25.8712 64.4738 26.4962 63.2238 27.2775C62.005 28.0587 60.9738 28.9806 60.13 30.0431C59.2863 31.0744 58.8644 32.1681 58.8644 33.3244ZM83.3331 9.37125C83.3331 9.0275 83.3644 8.60562 83.4269 8.10562C83.5206 7.57437 83.6613 7.07437 83.8488 6.60562C84.0675 6.13687 84.3331 5.74625 84.6456 5.43375C84.9581 5.09 85.3644 4.91812 85.8644 4.91812C85.8956 4.91812 85.9738 4.93375 86.0988 4.965C86.2238 4.99625 86.3019 5.01187 86.3331 5.01187C86.8644 6.94937 87.1769 8.87125 87.2706 10.7775C87.3644 12.6837 87.3331 14.5431 87.1769 16.3556C87.0206 18.1369 86.7863 19.8712 86.4738 21.5587C86.1613 23.215 85.8956 24.7462 85.6769 26.1525C85.4894 27.5587 85.3644 28.8244 85.3019 29.9494C85.2706 31.0744 85.4425 32.0275 85.8175 32.8087C85.755 32.3087 85.7081 31.715 85.6769 31.0275C85.6769 30.3087 85.7394 29.5744 85.8644 28.8244C86.0206 28.0744 86.255 27.3244 86.5675 26.5744C86.9113 25.8244 87.3956 25.1525 88.0206 24.5587C88.6456 23.965 89.4425 23.4962 90.4113 23.1525C91.4113 22.8087 92.6456 22.6369 94.1144 22.6369C95.6456 22.6369 96.9581 22.9025 98.0519 23.4337C99.1769 23.965 100.099 24.6994 100.818 25.6369C101.536 26.5431 102.068 27.6212 102.411 28.8712C102.786 30.09 102.974 31.4025 102.974 32.8087C102.974 33.465 102.958 34.215 102.927 35.0587C102.927 35.8712 102.818 36.6369 102.599 37.3556C102.411 38.0431 102.052 38.6369 101.521 39.1369C101.021 39.6056 100.271 39.84 99.2706 39.84C99.2706 39.34 99.3019 38.6681 99.3644 37.8244C99.4269 36.9494 99.4581 36.0275 99.4581 35.0587C99.4894 34.09 99.4581 33.1056 99.3644 32.1056C99.3019 31.1056 99.0988 30.215 98.755 29.4337C98.4113 28.6212 97.9269 27.965 97.3019 27.465C96.7081 26.9337 95.88 26.6681 94.8175 26.6681C94.4425 26.6681 93.9738 26.6994 93.4113 26.7619C92.88 26.7931 92.3331 26.9337 91.7706 27.1837C91.2081 27.4337 90.6613 27.8244 90.13 28.3556C89.5988 28.8556 89.1769 29.5587 88.8644 30.465C88.5519 31.34 88.3644 32.465 88.3019 33.84C88.2706 35.1837 88.4425 36.84 88.8175 38.8087C88.5988 39.3712 88.3175 39.6994 87.9738 39.7931C87.6613 39.8869 87.255 39.9337 86.755 39.9337C85.755 39.9337 84.9269 39.59 84.2706 38.9025C83.6456 38.1837 83.1613 37.2306 82.8175 36.0431C82.4738 34.8556 82.2394 33.4806 82.1144 31.9181C82.0206 30.3556 81.9894 28.7306 82.0206 27.0431C82.0519 25.3244 82.13 23.59 82.255 21.84C82.4113 20.0587 82.5519 18.3869 82.6769 16.8244C82.8331 15.2306 82.9738 13.7931 83.0988 12.5119C83.255 11.1994 83.3331 10.1525 83.3331 9.37125ZM125.005 33.7931C123.818 34.6056 122.786 35.34 121.911 35.9962C121.068 36.6212 120.239 37.1525 119.427 37.59C118.614 38.0275 117.739 38.3556 116.802 38.5744C115.896 38.7931 114.771 38.9025 113.427 38.9025C110.521 38.9025 108.364 38.1369 106.958 36.6056C105.552 35.0431 104.849 32.7306 104.849 29.6681C104.849 28.4806 105.005 27.2462 105.318 25.965C105.63 24.6837 106.083 23.4181 106.677 22.1681C107.302 20.8869 108.036 19.6837 108.88 18.5587C109.724 17.4025 110.677 16.3869 111.739 15.5119C112.802 14.6369 113.927 13.9494 115.114 13.4494C116.333 12.9181 117.614 12.6525 118.958 12.6525C121.208 12.8712 122.974 13.4337 124.255 14.34C125.536 15.215 126.505 16.3556 127.161 17.7619C127.818 19.1369 128.271 20.6837 128.521 22.4025C128.771 24.09 128.958 25.84 129.083 27.6525C129.239 29.465 129.427 31.2775 129.646 33.09C129.864 34.9025 130.318 36.5744 131.005 38.1056C130.599 39.1369 130.208 39.8556 129.833 40.2619C129.489 40.6994 129.099 40.7775 128.661 40.4962C128.224 40.215 127.708 39.5275 127.114 38.4337C126.552 37.34 125.849 35.7931 125.005 33.7931ZM108.833 29.7619C108.833 31.5431 109.161 32.8556 109.818 33.6994C110.505 34.5119 111.708 34.9181 113.427 34.9181C114.708 34.9181 115.927 34.6994 117.083 34.2619C118.271 33.7931 119.302 33.1681 120.177 32.3869C121.052 31.5744 121.755 30.6056 122.286 29.4806C122.818 28.3556 123.083 27.1056 123.083 25.7306C123.083 25.1681 123.099 24.3869 123.13 23.3869C123.161 22.3556 123.099 21.34 122.943 20.34C122.786 19.34 122.489 18.4806 122.052 17.7619C121.614 17.0119 120.958 16.6369 120.083 16.6369C118.458 16.6369 116.958 17.0587 115.583 17.9025C114.208 18.715 113.021 19.7619 112.021 21.0431C111.021 22.3244 110.239 23.7462 109.677 25.3087C109.114 26.84 108.833 28.3244 108.833 29.7619ZM133.958 24.0431C133.958 23.2306 134.161 22.6525 134.568 22.3087C134.974 21.9337 135.63 21.7462 136.536 21.7462H137.005C137.099 22.2462 137.208 22.8244 137.333 23.4806C137.458 24.1369 137.646 24.8087 137.896 25.4962C138.146 26.1837 138.443 26.8244 138.786 27.4181C139.13 27.9806 139.552 28.4337 140.052 28.7775C140.083 27.6837 140.349 26.6369 140.849 25.6369C141.38 24.6056 142.021 23.6994 142.771 22.9181C143.552 22.1056 144.396 21.4337 145.302 20.9025C146.239 20.34 147.161 19.965 148.068 19.7775H149.099C150.599 19.7775 151.88 20.1212 152.943 20.8087C154.005 21.465 154.88 22.34 155.568 23.4337C156.286 24.4962 156.833 25.715 157.208 27.09C157.583 28.465 157.864 29.8712 158.052 31.3087C158.271 32.715 158.396 34.09 158.427 35.4337C158.489 36.7462 158.521 37.8712 158.521 38.8087H155.099C154.911 36.9337 154.677 35.1369 154.396 33.4181C154.302 32.7306 154.177 32.0119 154.021 31.2619C153.864 30.4806 153.693 29.7619 153.505 29.1056C153.318 28.4181 153.114 27.7931 152.896 27.2306C152.677 26.6369 152.427 26.1369 152.146 25.7306C152.021 25.6056 151.849 25.4337 151.63 25.215C151.443 24.9962 151.239 24.7775 151.021 24.5587C150.802 24.34 150.599 24.1525 150.411 23.9962C150.224 23.84 150.114 23.7619 150.083 23.7619C149.146 23.5119 148.333 23.6994 147.646 24.3244C146.958 24.9181 146.349 25.7306 145.818 26.7619C145.286 27.7931 144.849 28.965 144.505 30.2775C144.193 31.59 143.927 32.8556 143.708 34.0744C143.489 35.2619 143.333 36.3087 143.239 37.215C143.146 38.09 143.083 38.6212 143.052 38.8087C142.271 39.3712 141.536 39.5431 140.849 39.3244C140.161 39.0744 139.505 38.5744 138.88 37.8244C138.286 37.0744 137.739 36.1369 137.239 35.0119C136.771 33.8869 136.333 32.6994 135.927 31.4494C135.521 30.1681 135.146 28.8869 134.802 27.6056C134.489 26.3244 134.208 25.1369 133.958 24.0431ZM161.099 20.715C161.099 20.5275 161.099 20.1994 161.099 19.7306C161.13 19.2306 161.146 18.715 161.146 18.1837C161.146 17.6525 161.146 17.1681 161.146 16.7306C161.177 16.2619 161.193 15.9337 161.193 15.7462C161.411 15.3712 161.661 15.0119 161.943 14.6681C162.255 14.2931 162.568 14.0431 162.88 13.9181C163.224 13.7619 163.583 13.7306 163.958 13.8244C164.364 13.9181 164.771 14.2306 165.177 14.7619V15.1369V15.7462C165.146 15.9025 165.083 16.2775 164.989 16.8712C164.896 17.4337 164.786 18.0587 164.661 18.7462C164.536 19.4337 164.411 20.0744 164.286 20.6681C164.193 21.2306 164.146 21.59 164.146 21.7462C164.146 22.34 164.208 23.09 164.333 23.9962C164.458 24.8712 164.63 25.7931 164.849 26.7619C165.099 27.7306 165.396 28.6994 165.739 29.6681C166.114 30.6369 166.552 31.5119 167.052 32.2931C167.552 33.0431 168.099 33.6681 168.693 34.1681C169.318 34.6681 170.036 34.9181 170.849 34.9181C171.849 34.9181 172.724 34.6525 173.474 34.1212C174.255 33.59 174.927 32.9025 175.489 32.0587C176.052 31.215 176.505 30.2619 176.849 29.1994C177.224 28.1369 177.521 27.0744 177.739 26.0119C177.958 24.9181 178.114 23.8712 178.208 22.8712C178.302 21.8712 178.349 20.9962 178.349 20.2462C178.349 19.4962 178.286 18.7931 178.161 18.1369C178.068 17.4494 177.943 16.7775 177.786 16.1212C177.63 15.465 177.489 14.8244 177.364 14.1994C177.271 13.5431 177.224 12.8869 177.224 12.2306C177.224 11.6369 177.427 11.215 177.833 10.965C178.271 10.715 178.755 10.59 179.286 10.59C179.943 10.59 180.474 10.7931 180.88 11.1994C181.286 11.5744 181.599 12.0587 181.818 12.6525C182.068 13.2462 182.224 13.9337 182.286 14.715C182.38 15.465 182.427 16.215 182.427 16.965C182.427 17.715 182.411 18.4337 182.38 19.1212C182.349 19.7775 182.333 20.3087 182.333 20.715C182.333 21.7775 182.255 22.9806 182.099 24.3244C181.943 25.6681 181.661 27.0587 181.255 28.4962C180.88 29.9025 180.396 31.2931 179.802 32.6681C179.239 34.0431 178.536 35.2775 177.693 36.3712C176.88 37.4337 175.927 38.2931 174.833 38.9494C173.771 39.6056 172.568 39.9337 171.224 39.9337C169.818 39.9337 168.583 39.6056 167.521 38.9494C166.458 38.2619 165.552 37.3712 164.802 36.2775C164.083 35.1525 163.474 33.8869 162.974 32.4806C162.474 31.0744 162.083 29.6681 161.802 28.2619C161.552 26.8556 161.364 25.4962 161.239 24.1837C161.146 22.84 161.099 21.6837 161.099 20.715ZM185.193 20.1525C185.193 19.8712 185.208 19.59 185.239 19.3087C185.271 18.9962 185.333 18.7306 185.427 18.5119C185.521 18.2619 185.661 18.0587 185.849 17.9025C186.068 17.7462 186.364 17.6681 186.739 17.6681C187.052 17.6681 187.396 17.9181 187.771 18.4181C188.177 18.8869 188.583 19.4962 188.989 20.2462C189.396 20.965 189.786 21.7619 190.161 22.6369C190.568 23.5119 190.911 24.3244 191.193 25.0744C191.505 25.7931 191.755 26.4181 191.943 26.9494C192.13 27.4806 192.239 27.7619 192.271 27.7931C192.677 26.6994 193.13 25.5119 193.63 24.2306C194.13 22.9494 194.739 21.7619 195.458 20.6681C196.208 19.5431 197.083 18.6056 198.083 17.8556C199.114 17.1056 200.364 16.7306 201.833 16.7306C202.583 16.7306 203.286 16.8556 203.943 17.1056C204.63 17.3244 205.224 17.6681 205.724 18.1369C206.255 18.5744 206.677 19.1056 206.989 19.7306C207.302 20.3556 207.458 21.0744 207.458 21.8869C207.458 22.5744 207.177 23.0587 206.614 23.34C206.083 23.6212 205.474 23.7619 204.786 23.7619H204.318L202.302 21.7462C202.239 21.7462 202.193 21.7306 202.161 21.6994C202.099 21.6994 202.036 21.6994 201.974 21.6994C201.943 21.6681 201.896 21.6525 201.833 21.6525C200.739 21.6525 199.88 21.965 199.255 22.59C198.661 23.1837 198.208 23.9337 197.896 24.84C197.583 25.715 197.38 26.6525 197.286 27.6525C197.224 28.6212 197.193 29.5119 197.193 30.3244C197.193 30.9494 197.255 31.59 197.38 32.2462C197.505 32.8712 197.646 33.4962 197.802 34.1212C197.958 34.715 198.099 35.34 198.224 35.9962C198.349 36.6212 198.411 37.2775 198.411 37.965C198.411 39.2775 197.708 39.9337 196.302 39.9337C195.521 39.9337 194.708 39.5275 193.864 38.715C193.021 37.8712 192.177 36.8087 191.333 35.5275C190.521 34.2462 189.739 32.84 188.989 31.3087C188.239 29.7462 187.583 28.2306 187.021 26.7619C186.458 25.2931 186.005 23.965 185.661 22.7775C185.349 21.59 185.193 20.715 185.193 20.1525Z" fill="white"/>
<path d="M5.126e-06 27.6V24.24C5.126e-06 22.352 0.576005 20.848 1.72801 19.728C2.88001 18.576 4.38401 18 6.24001 18C7.42401 18 8.43201 18.208 9.26401 18.624C10.096 19.04 10.8 19.568 11.376 20.208C11.984 20.816 12.528 21.44 13.008 22.08C13.488 22.688 13.984 23.2 14.496 23.616C15.008 24.032 15.584 24.24 16.224 24.24C16.96 24.24 17.52 24.016 17.904 23.568C18.288 23.12 18.48 22.464 18.48 21.6V18.24H22.56V21.6C22.56 23.456 21.984 24.96 20.832 26.112C19.712 27.264 18.208 27.84 16.32 27.84C15.136 27.84 14.128 27.632 13.296 27.216C12.464 26.8 11.744 26.288 11.136 25.68C10.56 25.04 10.032 24.416 9.552 23.808C9.07201 23.168 8.57601 22.64 8.06401 22.224C7.55201 21.808 6.97601 21.6 6.33601 21.6C5.63201 21.6 5.07201 21.824 4.656 22.272C4.27201 22.72 4.08001 23.376 4.08001 24.24V27.6H5.126e-06ZM29.2613 45.12L46.3013 -5.72205e-06H50.8613L33.8213 45.12H29.2613Z" fill="white"/>
</svg>
