<svg width="23" height="10" viewBox="0 0 23 10" fill="none" xmlns="http://www.w3.org/2000/svg"><path d="M0 9.787V6.362q0-2.887 1.762-4.6Q3.523 0 6.362 0q1.81 0 3.083.636a7.2 7.2 0 0 1 2.153 1.615q.93.93 1.664 1.909a10 10 0 0 0 1.517 1.566q.783.636 1.761.636 1.126 0 1.713-.685t.587-2.007V.245H23V3.67q0 2.838-1.762 4.6-1.713 1.762-4.6 1.762-1.81 0-3.083-.636a8.4 8.4 0 0 1-2.202-1.566 39 39 0 0 1-1.615-1.91q-.735-.978-1.517-1.615A2.72 2.72 0 0 0 6.46 3.67q-1.078 0-1.713.685-.588.686-.587 2.007v3.425z" fill="#000" style="stroke-width:1.0195"/></svg>